<?xml version="1.0" encoding="utf-8"?>
<!-- Generator: Adobe Illustrator 16.0.0, SVG Export Plug-In . SVG Version: 6.00 Build 0)  -->
<!DOCTYPE svg PUBLIC "-//W3C//DTD SVG 1.1//EN" "http://www.w3.org/Graphics/SVG/1.1/DTD/svg11.dtd">
<svg version="1.1" id="Layer_2" xmlns="http://www.w3.org/2000/svg" xmlns:xlink="http://www.w3.org/1999/xlink" x="0px" y="0px"
	 width="91px" height="58px" viewBox="0 0 91 58" enable-background="new 0 0 91 58" xml:space="preserve">
<g>
	<rect x="30" y="34" fill="#FFFFFF" width="54" height="6"/>
	<rect x="30" y="14" fill="#FFFFFF" width="54" height="6"/>
	<rect x="30" y="44" fill="#FFFFFF" width="54" height="6"/>
	<rect x="30" y="24" fill="#FFFFFF" width="54" height="6"/>
	<rect x="8" y="14" fill="#FFFFFF" width="18" height="6"/>
	<path fill="#FFFFFF" d="M88,0H3C1.343,0,0,1.343,0,3v52c0,1.657,1.343,3,3,3h85c1.657,0,3-1.343,3-3V3C91,1.343,89.657,0,88,0z
		 M88,12v2v8v2v8v2v8v2v8v2h-2H29h-2H6H4v-2v-8v-2v-8v-2v-8v-2v-8v-2V4h84V12z"/>
	<rect x="8" y="44" fill="#FFFFFF" width="18" height="6"/>
	<rect x="8" y="24" fill="#FFFFFF" width="18" height="6"/>
	<rect x="8" y="34" fill="#FFFFFF" width="18" height="6"/>
</g>
</svg>
