<?xml version="1.0" encoding="utf-8"?>
<!-- Generator: Adobe Illustrator 16.0.0, SVG Export Plug-In . SVG Version: 6.00 Build 0)  -->
<!DOCTYPE svg PUBLIC "-//W3C//DTD SVG 1.1//EN" "http://www.w3.org/Graphics/SVG/1.1/DTD/svg11.dtd">
<svg version="1.1" id="Layer_2" xmlns="http://www.w3.org/2000/svg" xmlns:xlink="http://www.w3.org/1999/xlink" x="0px" y="0px"
	 width="65px" height="85px" viewBox="0 0 65 85" enable-background="new 0 0 65 85" xml:space="preserve">
<g>
	<path fill-rule="evenodd" clip-rule="evenodd" fill="#EDEDED" d="M42.351,20.406c0,0.521-0.307,0.941-0.687,0.941H23.336
		c-0.379,0-0.687-0.421-0.687-0.941V19.15c0-0.521,0.308-0.942,0.687-0.942h18.328c0.38,0,0.687,0.422,0.687,0.942V20.406z"/>
	<polygon fill-rule="evenodd" clip-rule="evenodd" fill="#EDEDED" points="40.802,16.325 24.199,16.325 17.226,4.709 47.775,0 	"/>
	<path fill-rule="evenodd" clip-rule="evenodd" fill="#EDEDED" d="M32.5,23.545C14.551,23.545,0,37.302,0,54.272
		C0,71.243,14.551,85,32.5,85S65,71.243,65,54.272C65,37.302,50.449,23.545,32.5,23.545z M33.991,66.17v3.804h-3.865v-3.542
		c-2.642-0.113-5.207-0.784-6.706-1.604l1.183-4.363c1.657,0.858,3.984,1.641,6.548,1.641c2.249,0,3.787-0.821,3.787-2.312
		c0-1.417-1.262-2.312-4.181-3.244c-4.221-1.343-7.1-3.208-7.1-6.825c0-3.282,2.445-5.855,6.666-6.639v-3.543h3.866v3.282
		c2.643,0.112,4.417,0.635,5.719,1.231l-1.144,4.214C37.738,47.858,35.924,47,33.083,47c-2.563,0-3.392,1.044-3.392,2.088
		c0,1.231,1.38,2.015,4.733,3.208c4.694,1.566,6.587,3.617,6.587,6.975C41.012,62.589,38.527,65.423,33.991,66.17z"/>
</g>
</svg>
