<?xml version="1.0" encoding="utf-8"?>
<!-- Generator: Adobe Illustrator 16.0.0, SVG Export Plug-In . SVG Version: 6.00 Build 0)  -->
<!DOCTYPE svg PUBLIC "-//W3C//DTD SVG 1.1//EN" "http://www.w3.org/Graphics/SVG/1.1/DTD/svg11.dtd">
<svg version="1.1" id="Layer_2" xmlns="http://www.w3.org/2000/svg" xmlns:xlink="http://www.w3.org/1999/xlink" x="0px" y="0px"
	 width="74px" height="51px" viewBox="0 0 74 51" enable-background="new 0 0 74 51" xml:space="preserve">
<g>
	<g>
		<g>
			<path fill="#FFCE00" d="M31.5,19h-29C1.119,19,0,17.881,0,16.5S1.119,14,2.5,14h29c1.381,0,2.5,1.119,2.5,2.5S32.881,19,31.5,19z
				"/>
		</g>
		<g>
			<path fill="#FFCE00" d="M31.5,27h-29C1.119,27,0,25.881,0,24.5S1.119,22,2.5,22h29c1.381,0,2.5,1.119,2.5,2.5S32.881,27,31.5,27z
				"/>
		</g>
		<g>
			<path fill="#FFCE00" d="M31.5,35h-29C1.119,35,0,33.881,0,32.5S1.119,30,2.5,30h29c1.381,0,2.5,1.119,2.5,2.5S32.881,35,31.5,35z
				"/>
		</g>
		<g>
			<path fill="#FFCE00" d="M31.5,11h-29C1.119,11,0,9.881,0,8.5S1.119,6,2.5,6h29C32.881,6,34,7.119,34,8.5S32.881,11,31.5,11z"/>
		</g>
		<g>
			<path fill="#FFCE00" d="M31.5,43h-29C1.119,43,0,41.881,0,40.5S1.119,38,2.5,38h29c1.381,0,2.5,1.119,2.5,2.5S32.881,43,31.5,43z
				"/>
		</g>
		<g>
			<path fill="#FFCE00" d="M31.5,51h-29C1.119,51,0,49.881,0,48.5S1.119,46,2.5,46h29c1.381,0,2.5,1.119,2.5,2.5S32.881,51,31.5,51z
				"/>
		</g>
		<g>
			<path fill="#FFCE00" d="M71.5,35h-29c-1.381,0-2.5-1.119-2.5-2.5s1.119-2.5,2.5-2.5h29c1.381,0,2.5,1.119,2.5,2.5
				S72.881,35,71.5,35z"/>
		</g>
		<g>
			<path fill="#FFCE00" d="M71.5,43h-29c-1.381,0-2.5-1.119-2.5-2.5s1.119-2.5,2.5-2.5h29c1.381,0,2.5,1.119,2.5,2.5
				S72.881,43,71.5,43z"/>
		</g>
		<g>
			<path fill="#FFCE00" d="M71.5,51h-29c-1.381,0-2.5-1.119-2.5-2.5s1.119-2.5,2.5-2.5h29c1.381,0,2.5,1.119,2.5,2.5
				S72.881,51,71.5,51z"/>
		</g>
	</g>
	<g>
		<g>
			<path fill="#FFCE00" d="M57,0c-7.18,0-13,5.82-13,13s5.82,13,13,13s13-5.82,13-13S64.18,0,57,0z M58.498,20.018v2.123h-2.04
				v-1.977c-1.394-0.062-2.746-0.438-3.537-0.895l0.624-2.436c0.874,0.479,2.102,0.916,3.454,0.916c1.187,0,1.998-0.458,1.998-1.29
				c0-0.79-0.666-1.29-2.206-1.811c-2.227-0.749-3.745-1.79-3.745-3.808c0-1.831,1.29-3.268,3.517-3.704V5.161h2.039v1.831
				c1.395,0.062,2.331,0.354,3.018,0.687l-0.604,2.352c-0.541-0.229-1.498-0.708-2.997-0.708c-1.353,0-1.789,0.583-1.789,1.166
				c0,0.687,0.729,1.123,2.497,1.789c2.477,0.874,3.475,2.019,3.475,3.891C62.201,18.021,60.891,19.602,58.498,20.018z"/>
		</g>
	</g>
</g>
</svg>
