<?xml version="1.0" encoding="utf-8"?>
<!-- Generator: Adobe Illustrator 16.0.0, SVG Export Plug-In . SVG Version: 6.00 Build 0)  -->
<!DOCTYPE svg PUBLIC "-//W3C//DTD SVG 1.1//EN" "http://www.w3.org/Graphics/SVG/1.1/DTD/svg11.dtd">
<svg version="1.1" id="Layer_1" xmlns="http://www.w3.org/2000/svg" xmlns:xlink="http://www.w3.org/1999/xlink" x="0px" y="0px"
	 width="185px" height="200px" viewBox="0 0 185 200" enable-background="new 0 0 185 200" xml:space="preserve">
<g>
	<path fill="#BBBBBB" d="M0,187c0-48.667,0-97.333,0-146c4.468-15.355,17.345-12.705,28.614-12.861
		c0.556-5.865,0.681-11.277,1.669-16.526C31.388,5.745,36.519,3.049,41,0c6,0,12,0,18,0c0.563,0.503,1.045,1.197,1.703,1.479
		c7.762,3.331,10.215,9.68,10.121,17.531c-0.035,2.934-0.006,5.868-0.006,9.155c14.137,0,27.59,0.093,41.037-0.169
		c1.131-0.022,2.987-2.324,3.172-3.741c0.492-3.767-0.233-7.713,0.416-11.433C116.576,6.33,121.775,3.05,127,0
		c5.667,0,11.334,0,17,0c12.285,5.433,13.9,16.024,12.688,28.201C167.49,28.084,178.349,26.325,185,37c0,51.333,0,97.948,0,149.281
		c0,9-8.611,13.719-14.473,13.719c-54,0-104.527,0-158.527,0C6.527,200,0,194.281,0,187z M172.181,71.153
		c-53.15,0-105.548,0-158.067,0c0,38.401,0,76.467,0,114.813c1.563,0.08,2.861,0.207,4.159,0.207
		c49.489,0.01,98.979-0.047,148.467,0.099c4.609,0.014,5.529-1.733,5.514-5.886c-0.127-34.824-0.072-69.65-0.072-104.476
		C172.181,74.441,172.181,72.972,172.181,71.153z M58.181,33.644c0-3.488,0.002-6.976,0-10.464c-0.002-9.259-0.16-9.413-9.52-9.361
		c-5.698,0.031-6.793,1.114-6.832,7.056c-0.047,7.474-0.014,14.949-0.011,22.423c0.005,9.547,0.473,9.802,10.042,9.971
		c4.628,0.082,6.254-2.073,6.305-6.17C58.222,42.613,58.179,38.128,58.181,33.644z M143.181,33.502
		c0-4.493,0.029-8.986-0.008-13.479c-0.045-5.506-0.844-6.185-7.061-6.205c-7.605-0.024-8.247,0.392-8.279,5.979
		c-0.053,9.152,0.08,18.305-0.057,27.455c-0.062,4.21,1.623,6.2,5.893,5.946c1.824-0.108,3.666-0.109,5.489-0.002
		c3.072,0.181,4.112-1.313,4.05-4.221C143.099,43.82,143.177,38.66,143.181,33.502z"/>
	<g>
		<path fill="#BBBBBB" d="M56.957,147.774v-32.277c0-3.484,0.414-6.686,1.241-9.604s2.069-5.51,3.724-7.775s3.855-4.036,6.599-5.314
			c2.745-1.278,5.931-1.917,9.562-1.917c3.6,0,6.773,0.639,9.518,1.917s4.944,3.057,6.599,5.336c1.655,2.28,2.896,4.872,3.724,7.775
			s1.242,6.098,1.242,9.583v32.277c0,3.34-0.436,6.469-1.307,9.387c-0.871,2.919-2.156,5.511-3.855,7.775s-3.913,4.059-6.643,5.38
			c-2.73,1.32-5.823,1.981-9.278,1.981c-3.514,0-6.643-0.653-9.387-1.96s-4.959-3.093-6.643-5.357
			c-1.685-2.266-2.955-4.857-3.812-7.775C57.385,154.286,56.957,151.144,56.957,147.774z M83.963,147.774v-32.277
			c0-7.521-1.96-11.282-5.88-11.282c-1.075,0-1.99,0.276-2.744,0.828c-0.756,0.552-1.329,1.206-1.721,1.96
			c-0.392,0.755-0.697,1.706-0.915,2.853c-0.218,1.147-0.348,2.113-0.392,2.896c-0.044,0.784-0.065,1.699-0.065,2.744v32.277
			c0,0.9,0.036,1.779,0.109,2.636c0.072,0.856,0.225,1.829,0.457,2.918s0.551,2.033,0.958,2.831c0.406,0.799,0.98,1.475,1.721,2.025
			c0.74,0.553,1.604,0.828,2.592,0.828c1.219,0,2.25-0.385,3.092-1.154s1.452-1.793,1.83-3.071c0.377-1.277,0.632-2.468,0.762-3.571
			C83.898,150.112,83.963,148.966,83.963,147.774z"/>
		<path fill="#BBBBBB" d="M112.625,170.773v-58.238h-7.928v-11.543c0.812-0.494,1.901-1.067,3.267-1.721
			c1.364-0.653,2.424-1.183,3.18-1.59c0.755-0.406,1.597-1.074,2.526-2.003c0.929-0.929,1.713-2.047,2.352-3.354h11.587v78.449
			H112.625z"/>
	</g>
</g>
</svg>
