<?xml version="1.0" encoding="utf-8"?>
<!-- Generator: Adobe Illustrator 16.0.0, SVG Export Plug-In . SVG Version: 6.00 Build 0)  -->
<!DOCTYPE svg PUBLIC "-//W3C//DTD SVG 1.1//EN" "http://www.w3.org/Graphics/SVG/1.1/DTD/svg11.dtd">
<svg version="1.1" id="Layer_1" xmlns="http://www.w3.org/2000/svg" xmlns:xlink="http://www.w3.org/1999/xlink" x="0px" y="0px"
	 width="185px" height="200px" viewBox="0 0 185 200" enable-background="new 0 0 185 200" xml:space="preserve">
<g>
	<path fill="#BBBBBB" d="M0,187c0-48.667,0-97.333,0-146c4.468-15.355,17.345-12.705,28.614-12.861
		c0.556-5.865,0.681-11.277,1.669-16.526C31.388,5.745,36.519,3.049,41,0c6,0,12,0,18,0c0.563,0.503,1.045,1.197,1.703,1.479
		c7.762,3.331,10.215,9.68,10.121,17.531c-0.035,2.934-0.006,5.868-0.006,9.155c14.137,0,27.59,0.093,41.037-0.169
		c1.131-0.022,2.987-2.324,3.172-3.741c0.492-3.767-0.233-7.713,0.416-11.433C116.576,6.33,121.775,3.05,127,0
		c5.667,0,11.334,0,17,0c12.285,5.433,13.9,16.024,12.688,28.201C167.49,28.084,178.349,26.325,185,37c0,51.333,0,97.948,0,149.281
		c0,9-8.611,13.719-14.473,13.719c-54,0-104.527,0-158.527,0C6.527,200,0,194.281,0,187z M172.181,71.153
		c-53.15,0-105.548,0-158.067,0c0,38.401,0,76.467,0,114.813c1.563,0.08,2.861,0.207,4.159,0.207
		c49.489,0.01,98.979-0.047,148.467,0.099c4.609,0.014,5.529-1.733,5.514-5.886c-0.127-34.824-0.072-69.65-0.072-104.476
		C172.181,74.441,172.181,72.972,172.181,71.153z M58.181,33.644c0-3.488,0.002-6.976,0-10.464c-0.002-9.259-0.16-9.413-9.52-9.361
		c-5.698,0.031-6.793,1.114-6.832,7.056c-0.047,7.474-0.014,14.949-0.011,22.423c0.005,9.547,0.473,9.802,10.042,9.971
		c4.628,0.082,6.254-2.073,6.305-6.17C58.222,42.613,58.179,38.128,58.181,33.644z M143.181,33.502
		c0-4.493,0.029-8.986-0.008-13.479c-0.045-5.506-0.844-6.185-7.061-6.205c-7.605-0.024-8.247,0.392-8.279,5.979
		c-0.053,9.152,0.08,18.305-0.057,27.455c-0.062,4.21,1.623,6.2,5.893,5.946c1.824-0.108,3.666-0.109,5.489-0.002
		c3.072,0.181,4.112-1.313,4.05-4.221C143.099,43.82,143.177,38.66,143.181,33.502z"/>
	<g>
		<path fill="#BBBBBB" d="M56.434,145.422h15.159c0,0.175,0,0.465,0,0.871c0,0.93,0,1.655,0,2.179c0,0.522,0.036,1.292,0.109,2.309
			c0.072,1.017,0.174,1.837,0.305,2.461c0.131,0.625,0.341,1.344,0.632,2.156c0.29,0.813,0.638,1.444,1.045,1.895
			c0.406,0.45,0.937,0.843,1.59,1.176c0.653,0.334,1.386,0.501,2.2,0.501c0.812,0,1.539-0.145,2.178-0.436
			c0.639-0.29,1.161-0.632,1.568-1.023c0.406-0.392,0.754-0.958,1.045-1.699c0.29-0.74,0.501-1.372,0.631-1.895
			c0.131-0.522,0.232-1.256,0.305-2.199c0.072-0.943,0.109-1.626,0.109-2.048c0-0.42,0-1.081,0-1.981
			c0-3.63-0.893-6.439-2.679-8.429c-1.786-1.989-4.479-2.94-8.08-2.854V121.16c1.771,0.059,3.267-0.022,4.487-0.24
			c1.219-0.218,2.33-0.624,3.332-1.219c1.002-0.596,1.742-1.488,2.222-2.68c0.479-1.19,0.719-2.686,0.719-4.486
			c0-1.161-0.073-2.185-0.218-3.071c-0.146-0.885-0.407-1.764-0.784-2.635c-0.378-0.871-0.973-1.546-1.786-2.025
			c-0.813-0.479-1.829-0.719-3.049-0.719c-0.813,0-1.546,0.167-2.2,0.501c-0.653,0.334-1.184,0.726-1.59,1.176
			c-0.407,0.451-0.756,1.075-1.045,1.873c-0.291,0.799-0.501,1.518-0.632,2.156c-0.131,0.639-0.233,1.459-0.305,2.461
			c-0.073,1.002-0.109,1.765-0.109,2.287s0,1.249,0,2.178c0,0.349,0,0.61,0,0.784H56.391v-4.966c0-6.766,1.836-12.08,5.51-15.942
			c3.673-3.862,8.864-5.793,15.572-5.793c6.679,0,11.862,1.946,15.55,5.837c3.688,3.892,5.532,9.191,5.532,15.899
			c0,3.282-0.675,6.425-2.026,9.431c-1.35,3.006-3.318,5.321-5.902,6.947c2.758,2.033,4.77,4.712,6.033,8.037
			s1.895,6.904,1.895,10.737c0,3.63-0.385,6.897-1.154,9.801c-0.77,2.904-1.96,5.488-3.572,7.753
			c-1.612,2.266-3.797,4.008-6.556,5.228c-2.759,1.22-6.026,1.829-9.801,1.829c-3.195,0-6.011-0.407-8.451-1.22
			c-2.439-0.812-4.436-1.916-5.989-3.311c-1.554-1.394-2.825-3.136-3.812-5.227c-0.987-2.091-1.685-4.298-2.091-6.621
			c-0.407-2.323-0.639-4.937-0.697-7.841V145.422z"/>
		<path fill="#BBBBBB" d="M110.752,170.773v-58.238h-7.928v-11.543c0.812-0.494,1.901-1.067,3.267-1.721
			c1.364-0.653,2.424-1.183,3.18-1.59c0.755-0.406,1.597-1.074,2.526-2.003c0.929-0.929,1.713-2.047,2.352-3.354h11.587v78.449
			H110.752z"/>
	</g>
</g>
</svg>
