<?xml version="1.0" encoding="utf-8"?>
<!-- Generator: Adobe Illustrator 16.0.0, SVG Export Plug-In . SVG Version: 6.00 Build 0)  -->
<!DOCTYPE svg PUBLIC "-//W3C//DTD SVG 1.1//EN" "http://www.w3.org/Graphics/SVG/1.1/DTD/svg11.dtd">
<svg version="1.1" id="Layer_2" xmlns="http://www.w3.org/2000/svg" xmlns:xlink="http://www.w3.org/1999/xlink" x="0px" y="0px"
	 width="44px" height="49px" viewBox="0 0 44 49" enable-background="new 0 0 44 49" xml:space="preserve">
<path fill-rule="evenodd" clip-rule="evenodd" fill="#EDEDED" d="M40.967,0H3.033C0.806,0,0,0.822,0,3.096v42.808
	C0,48.178,0.806,49,3.033,49H33l11-11.229V3.096C44,0.822,43.194,0,40.967,0z M9,14h17v4H9V14z M9,21h27v5H9V21z M9,29h27v4H9V29z
	 M32,46.193V39.03c0-1.964,0.31-2.03,2.233-2.03h7.017L32,46.193z"/>
</svg>
