<?xml version="1.0" encoding="utf-8"?>
<!-- Generator: Adobe Illustrator 16.0.0, SVG Export Plug-In . SVG Version: 6.00 Build 0)  -->
<!DOCTYPE svg PUBLIC "-//W3C//DTD SVG 1.1//EN" "http://www.w3.org/Graphics/SVG/1.1/DTD/svg11.dtd">
<svg version="1.1" id="Layer_2" xmlns="http://www.w3.org/2000/svg" xmlns:xlink="http://www.w3.org/1999/xlink" x="0px" y="0px"
	 width="44px" height="49px" viewBox="0 0 44 49" enable-background="new 0 0 44 49" xml:space="preserve">
<path fill-rule="evenodd" clip-rule="evenodd" fill="#EDEDED" d="M40.967,0H3.033C0.806,0,0,0.806,0,3.033v42.934
	C0,48.194,0.806,49,3.033,49H33l11-11V3.033C44,0.806,43.194,0,40.967,0z M15,14h20v4H15V14z M15,21h20v4H15V21z M12,32H8v-4h4V32z
	 M12,25H8v-4h4V25z M12,18H8v-4h4V18z M15,28h20v4H15V28z M32,46.25v-7.017C32,37.31,32.31,37,34.233,37h7.017L32,46.25z"/>
</svg>
