<?xml version="1.0" encoding="utf-8"?>
<!-- Generator: Adobe Illustrator 16.0.0, SVG Export Plug-In . SVG Version: 6.00 Build 0)  -->
<!DOCTYPE svg PUBLIC "-//W3C//DTD SVG 1.1//EN" "http://www.w3.org/Graphics/SVG/1.1/DTD/svg11.dtd">
<svg version="1.1" id="Layer_2" xmlns="http://www.w3.org/2000/svg" xmlns:xlink="http://www.w3.org/1999/xlink" x="0px" y="0px"
	 width="13px" height="16px" viewBox="0 0 13 16" enable-background="new 0 0 13 16" xml:space="preserve">
<path fill-rule="evenodd" clip-rule="evenodd" fill="#EDEDED" d="M12.001,1.062l-1-0.062c0-0.832-0.198-1-0.75-1H0.797
	C0.245,0,0.006,0.188,0.006,0.741V15c0,0-0.125,1,0.812,1h11.62c0,0,0.562,0,0.562-0.938V1.771C13,1.771,13,1.062,12.001,1.062z
	 M3.028,8.898c0.13-0.125,0.771-0.553,1.464-0.655c0.692-0.103,0.461-0.871,0.483-0.858C4.999,7.396,4.97,7.22,4.97,7.22
	S4.585,6.734,4.591,6.298c0.006-0.438,0-0.725,0-0.725S4.712,4.646,5.42,4.646l0.302,0.08c0.656,0.17,0.681,0.847,0.681,0.847v0.788
	c0,0,0.001,0.599-0.397,0.822c0,0-0.028,0.176-0.005,0.164c0.022-0.011-0.069,0.793,0.624,0.896c0.693,0.103,1.207,0.53,1.337,0.655
	C8.092,9.023,8.18,9.938,8.18,9.938H2.809C2.809,9.938,2.802,9.191,3.028,8.898z M12.032,14.229c0,0-0.01,0.771-0.709,0.771H1.422
	c0,0-0.448,0.146-0.448-1.031L10.261,14c0.552,0,0.74-0.304,0.74-0.855V1.906l1.031,0.074V14.229z"/>
</svg>
