<?xml version="1.0" encoding="utf-8"?>
<!-- Generator: Adobe Illustrator 16.0.0, SVG Export Plug-In . SVG Version: 6.00 Build 0)  -->
<!DOCTYPE svg PUBLIC "-//W3C//DTD SVG 1.1//EN" "http://www.w3.org/Graphics/SVG/1.1/DTD/svg11.dtd">
<svg version="1.1" id="Layer_2" xmlns="http://www.w3.org/2000/svg" xmlns:xlink="http://www.w3.org/1999/xlink" x="0px" y="0px"
	 width="58px" height="42px" viewBox="0 0 58 42" enable-background="new 0 0 58 42" xml:space="preserve">
<g>
	<path fill-rule="evenodd" clip-rule="evenodd" fill="#EDEDED" d="M1.15,29.229c0.684-0.649,4.045-2.874,7.681-3.407
		c3.633-0.532,2.418-4.53,2.535-4.463c0.123,0.055-0.027-0.859-0.027-0.859s-2.018-2.523-1.988-4.793c0.031-2.28,0-3.768,0-3.768
		s0.633-4.819,4.348-4.819l1.585,0.417c3.441,0.883,3.574,4.402,3.574,4.402v4.098c0,0,0.008,3.112-2.086,4.276
		c0,0-0.149,0.914-0.029,0.852c0.118-0.055-0.36,4.125,3.273,4.657c3.635,0.533,6.332,2.757,7.016,3.407
		c0.687,0.65-4.764,5.403-4.764,5.403H0C0,34.632-0.038,30.753,1.15,29.229z"/>
	<path fill-rule="evenodd" clip-rule="evenodd" fill="#EDEDED" d="M30.971,29.229c0.684-0.649,4.045-2.874,7.681-3.407
		c3.633-0.532,2.417-4.53,2.534-4.463c0.124,0.055-0.027-0.859-0.027-0.859s-2.018-2.523-1.987-4.793c0.031-2.28,0-3.768,0-3.768
		s0.632-4.819,4.348-4.819l1.585,0.417c3.441,0.883,3.574,4.402,3.574,4.402v4.098c0,0,0.008,3.112-2.086,4.276
		c0,0-0.148,0.914-0.028,0.852c0.118-0.055-0.361,4.125,3.273,4.657c3.635,0.533,6.332,2.757,7.015,3.407
		C57.539,29.879,58,34.632,58,34.632H35.731C35.731,34.632,29.783,30.753,30.971,29.229z"/>
	<path fill-rule="evenodd" clip-rule="evenodd" fill="#EDEDED" d="M45.411,28.034c-0.867-0.824-4.286-3.645-8.896-4.32
		c-4.607-0.677-4-5.975-4.149-5.904c-0.153,0.077,0.036-1.082,0.036-1.082c2.655-1.475,2.646-5.422,2.646-5.422V6.11
		c0,0-0.169-4.462-4.533-5.582L28.504,0c-4.711,0-5.513,6.11-5.513,6.11s0.039,1.887,0,4.778c-0.039,2.878,2.52,6.078,2.52,6.078
		s0.191,1.158,0.036,1.088c-0.149-0.084,1.393,4.983-3.214,5.66c-4.61,0.675-8.874,3.496-9.74,4.32
		c-1.506,1.932-1.458,6.674-1.458,6.674h14.789l2.187-7.769l-1.122-2.486l0.62-0.489h2.634l0.547,0.489l-1.122,2.393l2.263,7.862
		h14.937C46.866,34.708,46.281,28.858,45.411,28.034z"/>
	<polygon fill-rule="evenodd" clip-rule="evenodd" fill="#EDEDED" points="25.923,36 28.472,42 29.47,42 31.929,36 	"/>
</g>
</svg>
