<?xml version="1.0" encoding="utf-8"?>
<!-- Generator: Adobe Illustrator 16.0.0, SVG Export Plug-In . SVG Version: 6.00 Build 0)  -->
<!DOCTYPE svg PUBLIC "-//W3C//DTD SVG 1.1//EN" "http://www.w3.org/Graphics/SVG/1.1/DTD/svg11.dtd">
<svg version="1.1" id="Layer_2" xmlns="http://www.w3.org/2000/svg" xmlns:xlink="http://www.w3.org/1999/xlink" x="0px" y="0px"
	 width="80px" height="52px" viewBox="0 0 80 52" enable-background="new 0 0 80 52" xml:space="preserve">
<g>
	<path fill="#FFCE00" d="M14.506,19.503c0,0,10.546-6.591,27.05-5.218c0,0-19.092-13.855-41.557,8.769
		c0,0,25.062,12.769,40.408-7.208C37.526,15.669,27.122,15.404,14.506,19.503z"/>
	<path fill="#FFCE00" d="M46.126,12.253c6.12-3.383,16.535-6.176,20.397-7.144c0.576-0.172,1.085-0.3,1.503-0.366
		c0,0-0.559,0.129-1.503,0.366c-4.922,1.475-14.897,6.413-17.983,7.966C67.351,18.689,80,1.485,80,1.485
		C57.522-5.081,46.126,12.253,46.126,12.253z"/>
	<path fill="#FFCE00" d="M39.852,1.063c0,0,12.837,26.543-1.271,50.316h9.392C47.972,51.38,50.802,16.773,39.852,1.063z"/>
	<g>
		<g>
			<path fill="#FFCE00" d="M30.542,26.201c-7.067,0-12.795,5.775-12.795,12.899C17.746,46.225,23.475,52,30.542,52
				s12.796-5.775,12.796-12.899C43.337,31.977,37.608,26.201,30.542,26.201z M32.016,46.064v2.106h-2.008v-1.962
				c-1.372-0.062-2.703-0.434-3.481-0.888l0.614-2.416c0.86,0.475,2.069,0.908,3.4,0.908c1.168,0,1.967-0.455,1.967-1.28
				c0-0.784-0.656-1.28-2.171-1.796c-2.191-0.743-3.686-1.776-3.686-3.778c0-1.817,1.27-3.242,3.461-3.675v-1.961h2.007v1.817
				c1.373,0.062,2.294,0.351,2.97,0.681l-0.594,2.333c-0.533-0.227-1.475-0.702-2.95-0.702c-1.332,0-1.761,0.578-1.761,1.156
				c0,0.682,0.717,1.115,2.458,1.776c2.438,0.867,3.42,2.003,3.42,3.861C35.661,44.083,34.371,45.652,32.016,46.064z"/>
		</g>
	</g>
</g>
</svg>
