<?xml version="1.0" encoding="utf-8"?>
<!-- Generator: Adobe Illustrator 16.0.0, SVG Export Plug-In . SVG Version: 6.00 Build 0)  -->
<!DOCTYPE svg PUBLIC "-//W3C//DTD SVG 1.1//EN" "http://www.w3.org/Graphics/SVG/1.1/DTD/svg11.dtd">
<svg version="1.1" id="Layer_1" xmlns="http://www.w3.org/2000/svg" xmlns:xlink="http://www.w3.org/1999/xlink" x="0px" y="0px"
	 width="202px" height="173px" viewBox="0 0 202 173" enable-background="new 0 0 202 173" xml:space="preserve">
<g>
	<path fill="#BBBBBB" d="M203,44c0,38.667,0,77.333,0,116c-2.814,7.546-8.346,11.986-16,14c-56.667,0-113.333,0-170,0
		c-8.335-2.332-13.668-7.665-16-16c0-37.333,0-74.667,0-112c0.258-0.178,0.703-0.318,0.749-0.541
		C3.92,34.843,9.751,30.001,20.416,30c5.99,0,11.98,0,17.97,0c6.76,0,13.52,0,20.614,0c0-5.581,0.383-10.582-0.093-15.5
		C58.256,7.779,61.332,3.717,67,1c23.667,0,47.333,0,71,0c6.509,3.277,8.71,8.637,8.07,15.711c-0.383,4.243-0.07,8.549-0.07,12.614
		c0.778,0.34,1.067,0.575,1.356,0.576c12.467,0.046,24.935,0.048,37.402,0.124c1.781,0.011,3.589,0.225,5.335,0.585
		C197.425,32.121,200.139,38.145,203,44z M106.854,154.775c0.059-1.35,0.286-2.36,0.114-3.298c-0.994-5.418,0.861-8.254,6.589-9.485
		c16.184-3.479,20.729-25.448,8.442-35.252c-5.415-4.32-12.019-7.142-18.042-10.712c-2.355-1.396-5.686-2.489-6.641-4.596
		c-1.516-3.343-2.502-7.687-1.669-11.109c0.768-3.152,4.38-5.147,8.493-4.344c6.039,1.179,6.373,6.135,7.258,10.711
		c5.903,0,11.66,0,17.392,0c0.696-12.348-7.773-22.226-20.897-24.201c0-3.669,0-7.426,0-11.124c-2.9,0-5.284,0-7.96,0
		c0,3.657,0,6.955,0,10.306c-1.999,0.497-3.723,0.934-5.451,1.353c-18.241,4.42-22.627,22.939-13.106,35.048
		c3.946,5.018,11.274,7.389,17.093,10.917c3.186,1.932,6.772,3.368,9.56,5.751c3.235,2.765,4.282,6.927,1.813,10.594
		c-1.414,2.099-4.21,3.901-6.704,4.497c-4.14,0.99-7.895-0.435-9.641-4.858c-0.871-2.207-1.474-4.518-2.181-6.728
		c-5.698,0-11.312,0-16.894,0c-1.195,10.218,4.471,20.581,15.061,23.109c7.955,1.9,9.457,5.626,8.623,12.349
		c-0.033,0.266,0.246,0.571,0.481,1.074C101.103,154.775,103.706,154.775,106.854,154.775z M129.768,16c-14.899,0-29.21,0-43.522,0
		c-12.861,0-12.864,0-12.117,12.849c0.016,0.277,0.317,0.538,0.498,0.801c18.37,0,36.74,0,55.142,0
		C129.768,25.033,129.768,20.768,129.768,16z"/>
</g>
</svg>
