<?xml version="1.0" encoding="utf-8"?>
<!-- Generator: Adobe Illustrator 16.0.0, SVG Export Plug-In . SVG Version: 6.00 Build 0)  -->
<!DOCTYPE svg PUBLIC "-//W3C//DTD SVG 1.1//EN" "http://www.w3.org/Graphics/SVG/1.1/DTD/svg11.dtd">
<svg version="1.1" id="Layer_2" xmlns="http://www.w3.org/2000/svg" xmlns:xlink="http://www.w3.org/1999/xlink" x="0px" y="0px"
	 width="39px" height="24px" viewBox="0 0 39 24" enable-background="new 0 0 39 24" xml:space="preserve">
<g>
	<g>
		<path fill="#FFFFFF" d="M37,10v12H25V10H37 M39,8H23v16h16V8L39,8z"/>
	</g>
	<path fill="#FFFFFF" d="M23,19h-7v-2h7v-2H3v-2h20v-2H3V9h20V8h13V3c0-1.657-1.343-3-3-3H3C1.343,0,0,1.343,0,3v15
		c0,1.657,1.343,3,3,3h20V19z M26,3h7v2h-7V3z M3,3h9v2H3V3z"/>
	<polygon fill="#FFFFFF" points="29.586,17.061 27.464,14.939 26.05,16.354 28.172,18.475 29.586,19.889 31,18.475 35.95,13.525 
		34.536,12.111 	"/>
</g>
</svg>
