<?xml version="1.0" encoding="utf-8"?>
<!-- Generator: Adobe Illustrator 16.0.0, SVG Export Plug-In . SVG Version: 6.00 Build 0)  -->
<!DOCTYPE svg PUBLIC "-//W3C//DTD SVG 1.1//EN" "http://www.w3.org/Graphics/SVG/1.1/DTD/svg11.dtd">
<svg version="1.1" id="Layer_2" xmlns="http://www.w3.org/2000/svg" xmlns:xlink="http://www.w3.org/1999/xlink" x="0px" y="0px"
	 width="147px" height="147px" viewBox="0 0 147 147" enable-background="new 0 0 147 147" xml:space="preserve">
<g>
	<defs>
		<rect id="SVGID_1_" width="147" height="147"/>
	</defs>
	<clipPath id="SVGID_2_">
		<use xlink:href="#SVGID_1_"  overflow="visible"/>
	</clipPath>
	<g clip-path="url(#SVGID_2_)">
		<g>
			<path fill="#FFFFFF" d="M88.394,289.588c0,0,12.188,21.771,16.982,21.85c4.793,0.078,6.19-6.539,1.117-12.152
				s-14.335-14.432-14.335-14.432L88.394,289.588z"/>
			<path fill="#FFFFFF" d="M74.103,249.527l14.291,40.061c0,0,9.031,11.764,12.558,10.346c3.525-1.418-8.793-15.08-8.793-15.08
				s-7.071-41.787-7.354-47.141c-0.282-5.352-7.365-12.104-11.86-7.75C68.447,234.316,74.103,249.527,74.103,249.527z"/>
		</g>
		<g>
			<g>
				<path fill="#FFFFFF" d="M43.807,189.402c0,0,4.672,1.77,8.126,6.605c3.455,4.834,3.849,10.783,3.849,10.783
					s-0.427,1.102-2.996-2.635c-2.57-3.738-3.062-4.523-3.062-4.523s2.942,5.826,3.763,11.23c0.821,5.402,0.121,8.953-1.199,7.484
					c-1.32-1.467-2.86-4.137-2.86-4.137l-1.031,1.521c0,0-0.156,0.688-1.688-2.08c-1.531-2.771-1.7-4.016-1.7-4.016
					s-0.112,2.777-1.946-2.322c-1.833-5.1-3.308-14.662-3.308-14.662L43.807,189.402z"/>
				<g>
					<path fill="#FFFFFF" d="M49.464,214.168c-0.009-0.021,0.069-0.697-0.374-3.373c-0.483-2.904-1.451-4.703-1.47-4.768
						c0,0,0.325,2.08,0.8,4.936c0.462,2.779,0.511,3.793,0.575,3.914L49.464,214.168z"/>
				</g>
				<g>
					<path fill="#FFFFFF" d="M45.127,210.012c-0.004-0.016-0.415-1.381-0.69-2.846c-0.264-1.402-0.488-2.588-0.488-2.588
						c-0.007,0.039-0.134,0.941,0.162,2.516c0.286,1.527,0.757,3.164,0.777,3.223L45.127,210.012z"/>
				</g>
			</g>
			<path fill="#FFFFFF" d="M51.567,148.344c0,0,3.304-9.965,3.998-16.523c0.659-6.217,1.021-11.505-2.188-10.486
				c-4.839,1.539-14.663,17.662-16.407,34.439C35.228,172.549,39.617,193,39.617,193l6.132-1.213c0,0-4.138-15.482-2.403-25.58
				C45.08,156.107,51.567,148.344,51.567,148.344z"/>
		</g>
		<g>
			<path fill="#FFFFFF" d="M37.46,152.166c0,0,2.718-19.07,14.79-30.971l0.901,0.143C47.419,127.186,40.42,136.76,37.46,152.166z"/>
		</g>
		<g>
			<path fill="#FFFFFF" d="M49.215,287.576c0,0-8.479,1.721-11.187,2.605c-2.709,0.887-3.665,8.393,7.976,6.537
				c11.639-1.855,19.394-4.701,20.542-6.82c1.148-2.117,0.253-4.176,0.253-4.176L49.215,287.576z"/>
			<path fill="#FFFFFF" d="M55.971,233.352c-1.008,4.15-0.608,7.049,0.969,16.734c1.578,9.684,5.021,34.26,5.021,34.26
				s-7.844,2.473-12.439,3.389c-4.596,0.918-6.416,5.107,0.299,5.518c6.186,0.377,16.657-4.887,16.657-4.887l2.64-48.486
				c0,0,1.91-10.99-4.137-12.326C58.935,226.217,56.633,230.627,55.971,233.352z"/>
		</g>
		<g>
			<path fill="#FFFFFF" d="M56.939,250.18c0,0,2.004-1.275,5.878-1.455c4.595-0.213,5.806,0.352,5.806,0.352l0.097-3.312
				l-13.208-3.141L56.939,250.18z"/>
			<path fill="#FFFFFF" d="M86.575,250.986c0,0-3.633-1.34-7.49-1.729c-4.083-0.41-5.108,0.033-5.108,0.033l-1.312-4.096
				l12.546-2.094L86.575,250.986z"/>
		</g>
		<g>
			<polygon fill="#FFFFFF" points="72.554,246.35 73.646,246.674 86.475,283.988 			"/>
		</g>
		<path fill="#FFFFFF" d="M74.942,93.068c0,0-1.433,4.177-1.216,10.271c0.217,6.095,3.756,8.04,3.756,8.04l-0.447,8.183
			L67.3,130.746l-7.502-10.097l-0.532-6.099c0,0,2.967-1.632,3.038-6.04c0.07-4.409-2.035-10.534-2.035-10.534L74.942,93.068z"/>
		<path fill="#FFFFFF" d="M45.381,202.172c0,0,0.335,7.613,3.457,21.045c3.123,13.428,5.224,20.652,5.224,20.652
			s6.751,2.924,17.107,3.184s17.648-3.52,17.648-3.52s1.969-3.846,4.718-20.549c2.748-16.705,2.209-31.713,2.209-31.713
			l-48.674,5.26L45.381,202.172z"/>
		<path fill="#FFFFFF" d="M58.963,201.309c0,0,3.18,1.104,8.634,1.316c5.455,0.211,13.285-2.986,13.285-2.986l-3.293-56.023
			l1.318-23.204l-4.438-1.151l-8.081,7.88l-4.455-6.125l-3.783,3.635l-2.968,51.297L58.963,201.309z"/>
		<path fill="#FFFFFF" d="M58.985,199.932c0,0,3.179,1.104,8.634,1.314c5.455,0.213,13.285-2.984,13.285-2.984l-3.294-56.023
			l1.319-23.204l-4.438-1.152l-8.081,7.881l-4.456-6.125l-3.782,3.635l-2.968,51.299L58.985,199.932z"/>
		<path fill="#FFFFFF" d="M55.32,120.665c0,0-5.486,11.451-6.954,22.214c-1.468,10.766-0.197,13.232-0.197,13.232
			s-3.091,14.693-2.938,29.725c0.123,11.93,0.204,16.891,0.204,16.891s3.349,1.746,7.294,2.951c3.92,1.201,8.533,2.701,8.533,2.701
			s-0.191-18.102-0.141-34.008c0.051-15.389-1.638-27.15-0.489-37.82c1.148-10.674,1.01-14.205,1.01-14.205l-2.366-3.418
			L55.32,120.665z"/>
		<path fill="#FFFFFF" d="M54.659,119.95c0,0-5.486,11.451-6.954,22.214c-1.468,10.766-0.197,13.232-0.197,13.232
			s-3.091,14.693-2.938,29.725c0.122,11.93,0.812,17.051,0.812,17.051s2.684,1.256,6.628,2.463c3.921,1.199,7.815,1.67,7.815,1.67
			s0.498-17.275,0.55-33.18c0.05-15.389-0.956-26.83,0.192-37.502s2.009-13.895,2.009-13.895l-3.961-3.516L54.659,119.95z"/>
		<path fill="#FFFFFF" d="M77.063,117.784c0,0-3.643,13.119-3.346,35.296c0.297,22.182,0.089,31.781,0.461,39.107
			c0.398,7.852,0.503,16.881,0.503,16.881s6.685-2.584,10.654-4.539c4.216-2.076,10.389-5.055,10.389-5.055
			s0.021-7.035-0.282-18.186c-0.302-11.023-0.717-28.535-3.529-42.721c-2.812-14.189-10.141-20.287-10.141-20.287L77.063,117.784z"
			/>
		<path fill="#FFFFFF" d="M77.805,116.434c0,0-4.309,13.597-4.012,35.777s1.187,31.082,1.559,38.41
			c0.398,7.852,0.996,14.957,0.996,14.957s5.742-1.773,9.898-3.293c4.157-1.521,10.351-4.119,10.351-4.119
			s-0.109-7.078-0.413-18.227c-0.302-11.023-0.716-28.535-3.529-42.721c-2.812-14.189-10.141-20.287-10.141-20.287L77.805,116.434z"
			/>
		<g>
			<path fill="#FFFFFF" d="M95.846,188.633l-2.971-7.178c0.781-0.299,17.449-7.127,14.71-23.225
				c-2.674-15.713-17.259-14.006-22.775-25.621c-2.664-5.609,0.174-10.719,1.724-10.762c3.961-0.107,25.258,14.953,28.824,34.939
				C118.379,173.73,104.191,185.502,95.846,188.633z"/>
		</g>
		<path fill="#FFFFFF" d="M84.724,209.055c0,0,2.459,7.031,5.122,8.814s4.151,1.756,4.151,1.756l0.481-3.541
			c0,0-1.966,0.732-5.339-1.709C85.774,211.934,84.724,209.055,84.724,209.055z"/>
		<path opacity="0.52" fill="#FFFFFF" d="M66.411,125.764c0,0,1.756-0.848,6.932-6.292c5.038-5.299,3.82-8.292,3.82-8.292
			s3.947,0.962,6.579,4.282c3.004,3.794,3.898,10.421,3.898,10.421s-2.349-2.777-8.67-3.354
			C72.906,121.975,66.411,125.764,66.411,125.764z"/>
		<path fill="#FFFFFF" d="M66.411,125.764c0,0,1.768-1.535,6.942-6.98c5.039-5.3,3.227-8.231,3.227-8.231s4.542,0.899,7.173,4.221
			c3.005,3.793,3.12,8.946,3.12,8.946s-2.016-2.18-8.102-2.414C72.688,121.068,66.411,125.764,66.411,125.764z"/>
		<path opacity="0.52" fill="#FFFFFF" d="M66.352,125.598c0,0-2.465-2.85-4.042-6.08c-2.083-4.263-1.444-6.708-1.444-6.708
			s-0.788,0.579-4.372,3.592c-3.584,3.014-6.259,8.534-6.259,8.534s2.936-4.085,8.775-2.973
			C64.397,122.99,66.352,125.598,66.352,125.598z"/>
		<path fill="#FFFFFF" d="M66.411,125.764c0,0-2.514-3.703-4.091-6.934c-2.083-4.263-0.737-7.228-0.737-7.228
			s-1.495,1.099-5.079,4.111c-3.583,3.014-5.332,7.464-5.332,7.464s2.389-3.646,7.849-1.902
			C64.261,122.949,66.411,125.764,66.411,125.764z"/>
		<g>
			<path fill="#FFFFFF" d="M74.116,160.105l0.047-1.256c0.021,0.004,2.079,0.404,6.093-0.25c4.01-0.656,7.054-2.715,7.083-2.734
				c0,0-3.034,3.004-6.971,3.816C78.085,160.15,74.157,160.113,74.116,160.105z"/>
		</g>
		<g>
			<path fill="#FFFFFF" d="M53.755,158.322c-0.151-0.043-3.035-1.055-4.297-1.748c-1.237-0.68-2.037-1.785-2.037-1.785
				c0.006,0.006,0.55,0.373,1.746,1.031c1.18,0.648,4.784,1.684,4.82,1.695L53.755,158.322z"/>
		</g>
		<path fill="#FFFFFF" d="M62.089,105.21l0.3,2.76c0,0,1.839-1.951,5.703-1.372c3.865,0.579,7.843,3.355,7.843,3.355
			s-1.78-1.75-2.042-5.328c-0.284-3.872,0.181-5.852,0.181-5.852L62.089,105.21z"/>
		<path fill="#FFFFFF" d="M97.085,184.65c-1.868-1.797-3.036-4.318-2.992-7.066c0.012-0.729,0.117-1.438,0.287-2.121
			c-1.393-0.178-4.659-0.328-11.358,0.51c-7.683,0.959-8.773,2.443-7.525,3.207c1.248,0.76,1.874,0.492,1.874,0.492
			s-1.144,0.525-0.128,1.09s12.396-0.035,12.396-0.035s-1.965,1.02-4.1,1.301c-2.134,0.283-4.24,0.885-3.313,1.672
			c0.926,0.787,9.748-0.791,9.748-0.791s1.674,6.01,4.001,6.791c0.172,0.057,0.331,0.09,0.485,0.111
			c-0.086-0.533-0.136-1.074-0.127-1.629C96.354,186.936,96.621,185.742,97.085,184.65z"/>
		<path fill="#FFFFFF" d="M99.346,187c0,0,0.048-2.051-1.255-6.15c-1.304-4.1-2.415-5.842-2.415-5.842s-2.467-0.881-12.243,0.34
			c-7.682,0.957-8.772,2.445-7.524,3.207c1.248,0.76,1.873,0.492,1.873,0.492s-1.144,0.525-0.127,1.09
			c1.016,0.564,12.396-0.035,12.396-0.035s-1.966,1.021-4.1,1.301c-2.134,0.283-4.241,0.885-3.314,1.674
			c0.927,0.787,9.749-0.793,9.749-0.793s1.673,6.01,4.001,6.791C98.714,189.855,99.346,187,99.346,187z"/>
		<g>
			<path fill="#FFFFFF" d="M77.617,179.178l-0.708-0.162c0.133-0.334,1.34-1.076,6.566-1.422c5.523-0.365,6.174,0.15,6.174,0.15
				c-0.023,0-0.703,0-6.118,0.357C78.549,178.432,77.643,179.146,77.617,179.178z"/>
		</g>
		<path fill="#FFFFFF" d="M46.991,214.277c0,0,0.812,1.332,3.132-1.625c2.32-2.959,2.507-5.051,2.507-5.051
			s-0.284,4.613-1.862,7.387c-1.578,2.775-3.011,3.434-3.011,3.434L46.991,214.277z"/>
		<g>
			<g>
				<path fill="#FFFFFF" d="M30.235,49.822c0,0,0.964,5.083,0.586,14.867c-0.376,9.783-2.438,21.185,3.817,30.353
					c6.257,9.17,12,15.132,28.755,11.4c16.755-3.732,25.777-21.186,25.777-21.186s4.477,2.724,5.021-6.938
					c0.546-9.66,0.632-15.659,0.632-15.659L55.481,31.862l-22.007,0.835L30.235,49.822z"/>
				<path fill="#FFFFFF" d="M30.905,59.476c0,0,4.378-3.113,8.263-2.482c3.884,0.632,9.748,6.875,6.78,14.308
					c-2.968,7.434-4.693,9.488-3.943,11.427c0.752,1.938,6.249,4.369,6.249,4.369s-8.048,2.599-11.486,1.454
					c-3.438-1.146-6.091-3.935-6.091-3.935s-0.871-3.465-0.344-11.493C30.86,65.093,30.905,59.476,30.905,59.476z"/>
				<path fill="#FFFFFF" d="M85.188,23.396c0,0,6.817-14.377,25.871-12.115c22.556,2.678,26.512,27.711,21.95,44.897
					c-4.564,17.187-18.006,28.369-15.835,36.101c2.172,7.729,6.949,5.17,6.949,5.17s-4.558,4.768-10.964-0.339
					s-3.623-22.607-3.623-22.607s-3.489,14.771-1.505,21.335c1.984,6.563,6.004,5.92,6.004,5.92s-20.711,3.54-18.31-18.837
					c2.4-22.375,8.804-20.027,9.392-36.276c0.59-16.252-10.206-12.847-10.206-12.847L85.188,23.396z"/>
				<g>
					<path fill="#FFFFFF" d="M117.352,48.04c0.079-0.207,7.525-18.666-2.004-23.316c-9.618-4.692-16.771,1.948-17.079,2.325
						l-3.445-4.23c0.083-0.102,11.781-8.629,21.888-1.729C126.818,27.99,117.352,48.04,117.352,48.04z"/>
				</g>
				<path fill="#FFFFFF" d="M82.671,24.981c0,0,4.29-7.709,10.598-4.749c11.313,5.307,6.174,15.589,6.174,15.589L82.671,24.981z"/>
				<path fill="#FFFFFF" d="M88.968,71.749c0.732-0.844,3.464-2.17,4.508,2.259c0.525,2.234,0.29,5.231,0.31,7.368
					c0.273-0.523,1.843-3.87,2.165-4.386c0.485-0.779,1.12-1.408,1.839-1.904c0.086-0.443,0.172-0.888,0.249-1.333
					c0.234-1.36,0.453-2.723,0.657-4.089c0.842-5.595,2.911-11.928,1.412-17.538c-0.335-1.257-1.829-3.268-2.671-4.004
					c-2.255-1.972-4.705-3.678-7.215-5.31c-5.208-3.387-10.571-6.721-14.498-11.642c-0.339-0.425-0.615-0.856-0.853-1.29
					c-0.311,0.087-0.629,0.165-0.968,0.223c-12.151,2.069-25.721-0.426-37.111,3.93c-4.448,1.7-6.538,3.121-6.723,7.92
					c-0.14,3.626,0.403,8.359,0.727,13.103c3.306,1.822,7.459,1.811,7.459,1.811s-4.211-3.087-4.464-9.33
					c-0.252-6.243,7.085-10.343,7.085-10.343s-2.508,1.151-1.334,7.545c1.175,6.395,5.527,9.252,5.527,9.252
					s0.539-8.228,8.567-10.412c8.028-2.183,20.918,1.803,26.697,13.594c5.779,11.789,2.834,23.492,2.834,23.492
					S86.807,74.238,88.968,71.749z"/>
				<path fill="#FFFFFF" d="M84.063,78.595c0,0,1.847-11.815-3.932-23.604C74.353,43.2,60.496,37.942,52.467,40.125
					c-8.028,2.185-8.883,10.85-8.883,10.85s-3.875-1.772-5.049-8.167c-1.174-6.394,1.335-7.545,1.335-7.545
					s-7.917,3.812-7.665,10.055c0.253,6.243,3.824,9.86,3.824,9.86s-15.666-3.292-14.397-16.094
					c1.943-19.61,26.239-13.63,26.239-13.63s28.275-13.059,45.09,1.301c16.812,14.359,9.7,37.19,6.056,45.256
					c-3.646,8.064-5.231,9.365-5.231,9.365s0.966-7.036-0.757-11.248c-1.721-4.212-2.768-4.195-2.768-4.195L84.063,78.595z"/>
				<path fill="#FFFFFF" d="M47.871,25.454c0,0,6.678,1.796,11.87,4.979c7.712,4.73,15.197,10.823,15.197,10.823
					s-6.281-5.91-13.05-11.233c-6.055-4.76,1.383-9.202,1.383-9.202c-5.357,1.286-7.147,1.641-8.592,2.075
					C52.933,23.419,47.871,25.454,47.871,25.454z"/>
				<g>
					<path fill="#FFFFFF" d="M48.254,87.097c-3.523-0.009-5.695-0.776-6.644-2.343c-1.197-1.982-0.117-4.645,1.232-7.226
						c1.805-3.457,3.355-6.844,3.371-6.88c0,0-4.428,10.532-3.07,13.401C44.414,86.733,48.254,87.097,48.254,87.097z"/>
				</g>
				<g>
					<path fill="#FFFFFF" d="M84.083,78.723l0.162-8.466c0.065-1.56,5.345-6,3.106-18.02c-2.154-11.567-4.649-15.274-4.649-15.274
						c0.214,0.113,4.24,3.964,7.263,15.796C93.389,66.172,84.177,78.597,84.083,78.723z"/>
				</g>
				<g>
					<path fill="#FFFFFF" d="M92.338,82.619c0.184,1.146-0.516,2.213-1.563,2.38c-1.048,0.169-2.046-0.627-2.229-1.772
						c-0.184-1.149,0.516-2.216,1.563-2.384S92.153,81.468,92.338,82.619z"/>
					<circle fill="#FFFFFF" cx="90.254" cy="82.335" r="1.385"/>
				</g>
			</g>
			<g>
				<g>
					
						<ellipse transform="matrix(0.9874 -0.1583 0.1583 0.9874 -10.5549 6.7796)" fill="#FFFFFF" cx="37.276" cy="69.639" rx="2.696" ry="3.471"/>
					
						<ellipse transform="matrix(0.9874 -0.1582 0.1582 0.9874 -10.5477 6.7706)" fill="#FFFFFF" cx="37.257" cy="69.642" rx="1.889" ry="2.431"/>
					<circle fill="#FFFFFF" cx="38.36" cy="68.829" r="1.218"/>
				</g>
				<g>
					
						<ellipse transform="matrix(0.9874 -0.1583 0.1583 0.9874 -9.9063 11.0742)" fill="#FFFFFF" cx="64.568" cy="67.727" rx="2.696" ry="3.473"/>
					
						<ellipse transform="matrix(0.9874 -0.1582 0.1582 0.9874 -9.9039 11.0674)" fill="#FFFFFF" cx="64.551" cy="67.73" rx="1.889" ry="2.434"/>
					<circle fill="#FFFFFF" cx="65.655" cy="66.917" r="1.219"/>
				</g>
			</g>
			<g>
				<path fill="#FFFFFF" d="M75.572,57.631c-0.025-0.012-3.228-1.373-9.985-0.611c-6.848,0.769-11.46,3.77-11.513,3.799
					c0,0,5.063-4.382,12.089-5.171C73.226,54.851,75.572,57.631,75.572,57.631z"/>
			</g>
			<g>
				<path fill="#FFFFFF" d="M42.62,57.574c-0.022-0.008-2.946-0.946-7.939,0.426c-3.764,1.034-4.577,2.084-4.608,2.116
					c0,0,0.457-2.19,4.616-3.426C39.875,55.15,42.62,57.574,42.62,57.574z"/>
			</g>
			<g>
				<g>
					<path fill="#FFFFFF" d="M44.506,94.879c0,0,0.226,7.396,6.483,6.99c7.808-0.505,11.679-10.075,11.679-10.075L44.506,94.879z"/>
					<path fill="#FFFFFF" d="M44.334,94.536c0,0-0.071,3.764,5.258,3.378c5.328-0.386,11.646-3.859,11.646-3.859l-0.125-1.62
						L44.334,94.536z"/>
				</g>
			</g>
			<g>
				<g>
					<path fill="#FFFFFF" d="M43.795,93.976c0,0,0.796,7.492,7.044,6.959c7.153-0.611,13.697-10.4,13.697-10.4L43.795,93.976z"/>
					<path fill="#FFFFFF" d="M44.184,93.601c0,0-0.07,3.763,5.258,3.377s11.646-3.858,11.646-3.858l-0.125-1.621L44.184,93.601z"/>
					<path fill="#FFFFFF" d="M64.536,90.535c0,0-4.871,3.241-12.828,4.048c-7.957,0.806-11.382-1.224-11.382-1.224
						s4.438-1.017,10.793-1.612C58.156,91.088,64.536,90.535,64.536,90.535z"/>
					<g>
						<path fill="#FFFFFF" d="M66.449,90.697c-0.022,0.004-0.804,0.169-1.928,0.069c-1.41-0.122-2.076-1.069-2.076-1.069
							c0.009,0.007,0.84,0.596,2.069,0.705c1.245,0.107,1.857-0.161,1.862-0.162L66.449,90.697z"/>
					</g>
				</g>
			</g>
			<g>
				<g>
					<path fill="#FFFFFF" d="M73.961,67.544c-0.043-0.03-2.32-1.871-8.695-2.422c-6.35-0.547-10.157,0.726-10.157,0.726
						c0.143-0.092,4.247-2.545,10.955-2.424c6.919,0.126,8.503,1.637,8.64,1.758L73.961,67.544z"/>
				</g>
				<g>
					<path fill="#FFFFFF" d="M31.487,70.311l-0.649-2.307c0.062-0.13,0.908-1.029,4.529-1.847c4.276-0.967,6.301,0.7,6.404,0.768
						c0,0-3.219-0.814-6.356,0.355C32.307,68.438,31.493,70.301,31.487,70.311z"/>
				</g>
			</g>
			
				<ellipse transform="matrix(0.9874 -0.1582 0.1582 0.9874 -11.5858 12.3905)" fill="#FFFFFF" cx="72.027" cy="78.961" rx="8.78" ry="7.403"/>
			
				<ellipse transform="matrix(0.9874 -0.1581 0.1581 0.9874 -12.3593 6.5162)" fill="#FFFFFF" cx="34.767" cy="80.921" rx="4.391" ry="6.37"/>
			<g>
				<path fill="#FFFFFF" d="M63.484,106.875c-1.76,0.462-3.646,0.809-5.635,0.971c-11.359,0.926-16.324-4.628-16.324-4.628
					c0.047,0.049,5.262,4.565,16.269,3.669c11.086-0.904,19.827-7.646,19.827-7.646C77.556,99.298,71.736,104.712,63.484,106.875z"
					/>
			</g>
		</g>
	</g>
</g>
</svg>
